<svg preserveAspectRatio="xMidYMid meet"
     viewBox="64.2 106.8 168.6 102.2"
     xmlns="http://www.w3.org/2000/svg"
     version="1.0"
     style="max-height: 500px"
     width="168.6"
     height="102.2"
>
  <metadata>
    Created by potrace 1.10, written by Peter Selinger 2001-2011
  </metadata>

  <g stroke="none" fill="darkorange" transform="translate(0.000000,300.000000) scale(0.050000,-0.050000)">
    <path d="M3980 3564 c0 -305 -1 -304 193 -304 201 0 207 9 207 280 0 349 -47&#10;397 -70 70 -22 -322 -79 -320 -102 5 -7 113 -20 205 -28 205 -18 0 -40 -173&#10;-40 -313 0 -72 -9 -106 -29 -114 -45 -17 -54 13 -66 228 -8 149 -18 199 -38&#10;199 -21 0 -27 -54 -27 -256z"/>
    <path d="M1440 3683 c-121 -121 -125 -333 -8 -463 37 -41 68 -90 68 -107 0&#10;-22 17 -33 50 -33 35 0 50 11 50 37 0 20 19 54 42 75 179 162 98 548 -114 548&#10;-17 0 -57 -26 -88 -57z m228 -93 c18 -36 31 -87 31 -113 -1 -32 -10 -19 -29&#10;40 -15 47 -43 104 -62 125 -30 34 -31 38 -3 27 17 -7 46 -42 63 -79z"/>
    <path d="M1819 3190 c0 0 -2 -205 -5 -455 l-4 -455 108 0 108 0 -12 300 c-14&#10;348 -11 353 96 138 183 -370 201 -372 365 -53 l115 225 6 -305 5 -305 100 0&#10;99 0 0 462 c0 413 -3 461 -32 450 -17 -7 -75 -12 -129 -12 l-99 0 -117 -234&#10;-117 -233 -118 228 -118 229 -125 10 c-69 6 -125 10 -126 10z"/>
    <path d="M3760 3095 l0 -95 160 0 160 0 0 -336 c0 -360 6 -384 100 -384 94 0&#10;100 24 100 384 l0 336 161 0 161 0 -6 91 -6 90 -415 5 -415 4 0 -95z"/>
    <path d="M3102 2755 c-103 -234 -191 -436 -197 -450 -7 -18 20 -25 94 -25&#10;l103 0 46 105 c24 58 89 211 143 340 116 276 107 271 176 100 90 -220 93 -205&#10;-31 -205 -106 0 -108 -1 -137 -75 -16 -41 -32 -82 -36 -90 -3 -8 78 -15 180&#10;-15 l187 0 34 -80 c33 -79 34 -80 142 -80 l110 0 -134 295 c-74 162 -165 365&#10;-202 450 l-67 155 -112 0 -112 0 -187 -425z"/>
    <path d="M1491 2989 c-25 -26 -31 -87 -31 -346 0 -330 8 -363 90 -363 82 0 90&#10;32 90 363 0 303 -2 316 -44 346 -56 39 -66 39 -105 0z"/>
  </g>
  <text x="148.5" y="208" text-anchor="middle"
        font-family="Arial, sans-serif"
        font-size="24"
        fill="#333">
    Admin Panel
  </text>
</svg>
